<svg width="512" height="512" viewBox="0 0 512 512" fill="none" xmlns="http://www.w3.org/2000/svg">
<rect width="512" height="512" rx="64" fill="url(#paint0_linear_5326_2689)"/>
<path d="M165.6 413.818C165.024 413.242 164.448 412.522 163.872 411.658C163.584 410.794 163.152 410.074 162.576 409.498C160.848 408.058 160.704 406.618 162.144 405.178L163.872 403.45C165.888 398.554 168.768 394.522 172.512 391.354C176.256 388.186 180.144 385.018 184.176 381.85C193.104 374.65 202.464 368.458 212.256 363.274C222.048 357.802 231.984 352.618 242.064 347.722C244.08 346.57 246.096 345.562 248.112 344.698C250.128 343.834 252 342.826 253.728 341.674C256.032 340.522 257.472 338.938 258.048 336.922C260.352 330.586 262.8 324.394 265.392 318.346C268.272 312.01 270.864 305.674 273.168 299.338C274.608 295.306 275.904 291.562 277.056 288.106C278.208 284.362 279.648 280.762 281.376 277.306C281.952 276.154 282.24 275.002 282.24 273.85C282.24 272.41 282.528 270.97 283.104 269.53C284.256 266.074 285.408 262.618 286.56 259.162C287.712 255.706 289.008 252.106 290.448 248.362C291.6 246.058 292.608 243.754 293.472 241.45C294.336 238.858 295.056 236.266 295.632 233.674C296.208 230.506 296.928 227.482 297.792 224.602C298.656 221.722 300.096 219.13 302.112 216.826C302.688 216.25 302.976 215.53 302.976 214.666C303.264 213.514 303.552 212.65 303.84 212.074C304.992 208.042 306 204.154 306.864 200.41C307.728 196.666 309.024 193.066 310.752 189.61C312.192 186.73 313.344 183.85 314.208 180.97C315.072 177.802 315.216 174.634 314.64 171.466C315.216 171.178 315.648 171.034 315.936 171.034C316.512 171.034 316.368 170.602 315.504 169.738C315.504 170.314 315.216 170.89 314.64 171.466C312.336 173.482 310.608 175.786 309.456 178.378C308.592 180.97 307.152 183.418 305.136 185.722C303.408 187.738 301.968 189.898 300.816 192.202C299.664 194.506 298.368 196.81 296.928 199.114C292.896 204.874 289.008 210.778 285.264 216.826C281.808 222.874 277.632 228.49 272.736 233.674C271.296 235.114 270.144 236.986 269.28 239.29C267.552 244.186 265.536 249.082 263.232 253.978C260.928 258.586 257.76 262.618 253.728 266.074C251.424 270.394 248.544 274.138 245.088 277.306C241.92 280.474 239.04 284.074 236.448 288.106C234.144 291.274 231.552 294.298 228.672 297.178C225.792 299.77 222.768 302.362 219.6 304.954C216.72 307.546 213.552 309.418 210.096 310.57C206.928 311.434 203.616 312.154 200.16 312.73C193.824 314.17 188.784 312.298 185.04 307.114C182.736 304.81 180.576 302.506 178.56 300.202C176.544 297.898 174.816 295.45 173.376 292.858C172.224 290.842 171.072 288.25 169.92 285.082C168.768 281.626 168.192 278.89 168.192 276.874C168.192 273.706 168.192 270.538 168.192 267.37C168.192 263.914 168.768 260.602 169.92 257.434C170.784 254.266 171.36 251.242 171.648 248.362C171.936 245.482 172.368 242.458 172.944 239.29C173.52 236.986 173.952 234.826 174.24 232.81C174.816 230.794 175.392 228.634 175.968 226.33C176.256 224.314 176.256 222.298 175.968 220.282C175.968 218.266 176.688 216.538 178.128 215.098C178.128 207.898 179.424 200.986 182.016 194.362C183.456 191.194 184.176 188.026 184.176 184.858C184.464 181.402 185.328 178.09 186.768 174.922C187.344 173.77 187.632 172.618 187.632 171.466C187.92 170.314 188.352 169.018 188.928 167.578C189.216 166.138 189.504 164.986 189.792 164.122C190.368 162.97 190.8 161.674 191.088 160.234C191.664 153.61 192.96 147.418 194.976 141.658C196.992 135.61 198.72 129.418 200.16 123.082C202.752 113.002 205.488 103.21 208.368 93.7055C211.536 83.9135 214.992 74.1216 218.736 64.3296C220.176 60.2976 221.472 56.4096 222.624 52.6656C223.776 48.6336 224.928 44.6016 226.08 40.5696C226.656 38.5536 227.232 36.6815 227.808 34.9536C228.672 32.9375 230.112 31.4975 232.128 30.6336C234.432 29.7696 236.592 29.9136 238.608 31.0656C240.912 31.9296 243.216 33.0816 245.52 34.5216C246.672 35.0976 247.824 36.3936 248.976 38.4096C250.992 40.4255 251.424 42.4416 250.272 44.4576C248.832 47.6256 247.824 50.7935 247.248 53.9615C246.96 57.1296 245.808 60.1536 243.792 63.0336C243.216 68.5056 241.632 73.5455 239.04 78.1535C236.448 82.7615 234.432 87.6576 232.992 92.8416C231.552 97.7376 229.968 102.778 228.24 107.962C226.512 112.858 224.928 117.754 223.488 122.65C221.184 130.138 218.736 137.482 216.144 144.682C213.84 151.594 211.68 158.794 209.664 166.282C208.224 171.178 206.784 176.074 205.344 180.97C204.192 185.866 203.328 190.762 202.752 195.658C202.464 197.098 202.032 198.682 201.456 200.41C201.168 201.85 200.88 203.29 200.592 204.73C200.016 207.034 199.44 209.194 198.864 211.21C198.576 212.938 198.144 214.954 197.568 217.258C197.28 219.274 197.136 221.29 197.136 223.306C197.136 225.322 196.704 227.194 195.84 228.922C195.552 229.498 195.552 230.218 195.84 231.082C196.416 231.658 196.416 232.234 195.84 232.81C194.112 235.69 192.96 238.858 192.384 242.314C192.096 245.482 191.952 248.65 191.952 251.818C191.952 252.394 191.952 253.114 191.952 253.978C192.24 254.554 192.24 255.13 191.952 255.706C189.936 260.89 189.072 266.218 189.36 271.69C189.648 276.874 189.792 282.058 189.792 287.242C189.504 290.698 189.936 292.714 191.088 293.29C192.24 293.866 194.4 293.146 197.568 291.13C197.856 290.842 198.144 290.698 198.432 290.698C199.008 290.698 199.44 290.554 199.728 290.266C203.184 286.234 206.928 282.778 210.96 279.898C214.992 277.018 218.592 273.562 221.76 269.53C222.336 268.378 222.768 267.658 223.056 267.37C226.8 264.778 229.824 261.898 232.128 258.73C234.432 255.274 236.448 251.53 238.176 247.498C238.752 246.058 239.76 244.762 241.2 243.61C242.64 242.458 244.08 241.45 245.52 240.586C246.096 240.01 246.384 239.146 246.384 237.994C246.672 236.842 247.104 236.122 247.68 235.834C249.12 235.258 249.696 234.682 249.408 234.106C249.12 233.242 248.832 232.378 248.544 231.514C247.968 228.346 249.552 226.186 253.296 225.034C253.584 225.322 253.728 225.754 253.728 226.33C253.728 226.906 254.16 226.762 255.024 225.898C255.024 225.898 254.448 225.61 253.296 225.034C253.584 224.458 253.728 224.026 253.728 223.738C253.728 223.162 254.016 222.73 254.592 222.442C257.472 220.714 259.776 218.698 261.504 216.394C263.52 213.802 264.384 210.49 264.096 206.458C264.096 205.882 264.672 204.73 265.824 203.002C267.264 201.562 268.56 200.266 269.712 199.114C270.864 197.674 271.728 195.802 272.304 193.498C272.592 191.482 273.744 189.898 275.76 188.746C277.776 187.594 278.496 185.866 277.92 183.562C281.376 180.682 283.968 177.226 285.696 173.194C287.424 168.874 290.016 165.274 293.472 162.394C294.912 160.954 295.632 159.226 295.632 157.21C295.632 155.194 296.784 153.61 299.088 152.458C300.528 151.594 301.536 150.298 302.112 148.57C302.688 146.842 303.264 145.114 303.84 143.386C304.128 142.522 304.848 140.938 306 138.634C309.168 133.738 312.336 128.842 315.504 123.946C318.96 119.05 322.128 114.01 325.008 108.826C326.736 105.658 328.464 102.634 330.192 99.7535C332.208 96.8735 333.216 93.5615 333.216 89.8175C333.216 88.9536 333.504 88.2336 334.08 87.6575C334.368 86.7936 334.944 86.0736 335.808 85.4975C336.672 84.9216 337.536 84.3455 338.4 83.7695C339.264 83.1935 339.984 82.6175 340.56 82.0415C341.136 81.1776 341.28 80.0256 340.992 78.5856C340.704 76.2816 341.136 74.4096 342.288 72.9696C343.728 71.5296 345.168 70.0896 346.608 68.6496C347.472 67.7856 348.048 66.9215 348.336 66.0575C348.624 64.9056 348.912 63.7536 349.2 62.6016C349.2 60.0096 349.2 57.4176 349.2 54.8256C349.2 51.9456 349.92 49.3536 351.36 47.0495C351.648 46.4735 351.648 45.7535 351.36 44.8896C351.36 43.7376 351.216 42.7295 350.928 41.8655C350.352 40.7135 350.208 39.7055 350.496 38.8416C350.784 37.6896 351.216 36.6815 351.792 35.8175C352.656 33.5136 354.528 32.6496 357.408 33.2255C360 33.8015 362.16 35.0975 363.888 37.1136C365.904 38.8415 367.776 40.5695 369.504 42.2975C372.096 45.4655 373.392 49.2095 373.392 53.5295C373.392 55.5456 373.536 57.5616 373.824 59.5775C374.112 61.3055 374.4 63.1775 374.688 65.1935C374.688 66.6335 374.544 67.4975 374.256 67.7855C371.664 69.8016 370.368 72.2496 370.368 75.1295C370.656 78.0095 370.08 80.7455 368.64 83.3375C367.2 85.6416 366.192 88.2336 365.616 91.1135C365.328 93.7055 364.896 96.1535 364.32 98.4576C363.456 101.914 362.304 105.37 360.864 108.826C359.712 111.994 358.704 115.306 357.84 118.762C356.976 122.218 355.968 125.818 354.816 129.562C353.664 133.018 352.512 136.474 351.36 139.93C350.496 142.81 349.488 145.69 348.336 148.57C347.184 151.162 346.32 154.042 345.744 157.21C345.168 158.65 344.736 160.234 344.448 161.962C344.16 163.402 344.016 164.842 344.016 166.282C344.016 168.298 343.728 169.594 343.152 170.17C340.848 173.338 339.408 176.938 338.832 180.97C338.256 185.002 336.96 188.746 334.944 192.202C333.216 195.658 331.776 199.258 330.624 203.002C329.472 206.746 328.176 210.634 326.736 214.666C324.432 221.002 322.128 227.338 319.824 233.674C317.808 240.01 316.08 246.49 314.64 253.114C314.064 256.282 313.056 259.306 311.616 262.186C310.464 264.778 309.6 267.658 309.024 270.826C308.448 273.994 307.584 277.018 306.432 279.898C305.28 282.49 304.128 285.226 302.976 288.106C300.672 294.154 298.512 300.346 296.496 306.682C294.48 313.018 291.888 319.066 288.72 324.826C288.432 325.114 288.288 325.546 288.288 326.122C288.576 326.698 288.72 327.13 288.72 327.418C290.448 327.994 291.6 328.138 292.176 327.85C297.936 325.546 303.84 324.106 309.888 323.53C315.936 322.666 321.84 320.938 327.6 318.346C328.464 318.058 329.328 317.914 330.192 317.914C331.344 317.914 332.352 317.914 333.216 317.914C337.248 318.49 340.992 317.626 344.448 315.322C347.328 313.018 350.208 312.298 353.088 313.162C355.968 313.738 358.848 314.026 361.728 314.026V314.458C362.016 315.034 362.16 315.322 362.16 315.322V316.618C360.432 317.194 358.704 317.914 356.976 318.778C355.536 319.642 354.096 320.362 352.656 320.938C350.352 322.09 347.904 322.954 345.312 323.53C342.72 323.818 340.416 325.114 338.4 327.418C338.112 327.706 337.392 328.138 336.24 328.714C333.072 330.154 329.904 331.018 326.736 331.306C323.568 331.594 320.4 332.602 317.232 334.33C314.352 335.77 311.472 336.922 308.592 337.786C306 338.362 303.12 338.938 299.952 339.514C294.192 340.954 288.864 342.97 283.968 345.562C282.528 346.138 281.232 347.146 280.08 348.586C278.928 349.738 278.208 351.034 277.92 352.474C277.344 355.642 276.048 358.666 274.032 361.546C272.304 364.426 271.44 367.594 271.44 371.05C271.728 373.066 271.008 374.794 269.28 376.234C267.84 377.386 266.832 379.114 266.256 381.418C265.392 386.026 263.952 390.49 261.936 394.81C259.92 398.842 257.904 402.874 255.888 406.906C255.312 408.346 254.592 409.498 253.728 410.362C253.152 411.514 252.576 412.81 252 414.25C250.56 420.01 247.824 424.906 243.792 428.938C240.048 432.97 236.592 437.434 233.424 442.33C231.984 444.346 230.256 446.074 228.24 447.514C226.224 448.954 224.208 450.394 222.192 451.834C221.328 452.41 219.744 452.986 217.44 453.562C216.288 454.138 215.136 454.426 213.984 454.426C213.12 454.426 212.112 454.714 210.96 455.29C206.64 457.882 202.032 459.754 197.136 460.906C192.24 462.058 187.488 463.642 182.88 465.658C178.56 467.386 174.528 467.818 170.784 466.954C167.04 466.09 163.44 464.794 159.984 463.066C156.816 461.338 154.08 458.89 151.776 455.722C149.472 452.842 147.168 449.962 144.864 447.082C143.712 445.354 143.712 443.626 144.864 441.898C146.016 440.458 146.448 438.73 146.16 436.714C145.872 434.986 146.304 433.402 147.456 431.962C148.896 429.658 150.336 427.21 151.776 424.618C153.216 422.026 154.656 419.578 156.096 417.274C157.248 415.258 158.688 414.106 160.416 413.818C162.144 413.818 163.872 413.818 165.6 413.818C168.768 419.002 168.912 424.042 166.032 428.938C163.728 432.682 162.72 436.858 163.008 441.466C163.584 445.21 165.312 446.65 168.192 445.786C173.952 444.058 179.568 442.186 185.04 440.17C190.512 438.442 195.84 436.138 201.024 433.258C204.768 431.242 208.224 429.082 211.392 426.778C214.56 424.762 217.296 422.17 219.6 419.002C223.344 413.53 226.944 408.202 230.4 403.018C234.144 397.834 236.736 392.074 238.176 385.738C238.464 384.586 238.896 383.578 239.472 382.714C240.048 381.85 240.624 380.842 241.2 379.69C242.352 377.098 243.36 374.506 244.224 371.914C245.376 369.322 246.384 366.586 247.248 363.706C247.536 363.418 247.536 363.13 247.248 362.842C246.96 362.554 246.816 362.122 246.816 361.546C245.952 362.41 245.52 362.698 245.52 362.41C244.08 364.426 242.208 365.578 239.904 365.866C237.6 365.866 235.584 366.73 233.856 368.458C232.128 370.474 230.112 372.058 227.808 373.21C225.504 374.362 223.2 375.658 220.896 377.098C217.152 379.69 212.976 381.85 208.368 383.578C203.76 388.474 198.576 392.362 192.816 395.242C187.056 397.834 181.872 401.29 177.264 405.61C175.536 407.338 173.664 408.778 171.648 409.93C169.632 411.082 167.616 412.378 165.6 413.818ZM255.888 379.258C256.464 378.97 256.896 378.826 257.184 378.826C257.76 378.826 257.76 378.394 257.184 377.53C256.896 377.818 256.608 378.106 256.32 378.394C256.32 378.682 256.176 378.97 255.888 379.258C255.6 379.834 255.168 380.266 254.592 380.554C254.304 380.842 254.016 381.274 253.728 381.85C253.728 382.426 254.016 383.002 254.592 383.578C255.168 383.578 255.456 383.29 255.456 382.714C255.456 382.138 255.456 381.562 255.456 380.986C255.744 380.41 255.888 379.834 255.888 379.258ZM216.576 283.354C216.576 283.93 216.72 284.362 217.008 284.65H217.872C219.6 284.65 220.896 284.218 221.76 283.354C222.912 282.49 224.064 281.482 225.216 280.33C226.368 279.178 227.52 278.314 228.672 277.738C230.112 276.874 231.696 276.586 233.424 276.874C234 276.874 234.288 276.586 234.288 276.01C237.168 272.554 239.904 269.098 242.496 265.642C245.088 262.186 247.824 258.73 250.704 255.274C252.432 252.97 254.16 250.954 255.888 249.226C257.616 247.21 258.912 245.05 259.776 242.746C260.64 240.442 261.792 238.57 263.232 237.13C264.672 235.69 265.968 233.962 267.12 231.946C267.984 229.642 268.992 227.482 270.144 225.466C271.296 223.45 272.448 221.29 273.6 218.986L277.488 213.802C278.64 212.362 279.648 211.066 280.512 209.914C281.664 208.474 282.816 207.034 283.968 205.594C283.104 203.29 283.392 201.562 284.832 200.41C286.272 198.97 287.568 197.53 288.72 196.09C289.584 194.65 290.304 193.354 290.88 192.202C291.744 190.762 292.464 189.322 293.04 187.882C293.616 186.442 294.192 185.29 294.768 184.426C295.344 183.562 296.064 182.554 296.928 181.402C299.52 178.234 301.824 175.066 303.84 171.898C305.856 168.73 307.44 165.13 308.592 161.098C308.88 160.81 308.88 160.522 308.592 160.234C308.304 159.658 308.016 159.226 307.728 158.938C306.576 158.938 305.712 159.082 305.136 159.37C304.848 159.658 304.416 160.378 303.84 161.53C302.976 162.97 301.968 164.266 300.816 165.418C299.952 166.57 299.232 167.866 298.656 169.306C298.08 170.746 297.072 171.898 295.632 172.762C294.48 173.626 294.048 175.066 294.336 177.082C294.912 179.098 294.192 180.25 292.176 180.538C290.448 180.538 289.296 181.258 288.72 182.698C286.416 187.306 283.536 191.482 280.08 195.226C276.624 198.97 274.464 203.434 273.6 208.618L254.16 238.426C250.128 245.05 245.664 251.386 240.768 257.434C236.16 263.194 230.832 268.522 224.784 273.418C223.344 274.57 222.048 275.866 220.896 277.306C220.032 278.458 218.88 279.754 217.44 281.194C216.864 281.77 216.576 282.49 216.576 283.354ZM319.824 139.93C318.096 140.506 316.08 141.946 313.776 144.25C311.76 146.266 310.464 148.138 309.888 149.866C309.6 150.442 309.744 151.162 310.32 152.026C310.896 152.89 311.472 153.61 312.048 154.186C312.624 154.762 313.2 154.906 313.776 154.618C314.352 154.33 314.928 153.898 315.504 153.322C316.656 151.306 317.664 149.434 318.528 147.706C319.392 145.69 320.256 143.674 321.12 141.658C321.12 141.658 321.12 141.226 321.12 140.362C320.832 140.362 320.544 140.362 320.256 140.362C320.256 140.074 320.112 139.93 319.824 139.93ZM326.304 122.65C326.592 122.65 326.736 122.794 326.736 123.082C326.736 123.082 326.88 123.082 327.168 123.082H327.6H328.896L332.784 115.306C332.784 114.73 332.496 114.442 331.92 114.442C331.92 113.866 331.632 113.866 331.056 114.442C329.616 115.306 328.608 116.602 328.032 118.33C327.456 119.77 326.88 121.21 326.304 122.65ZM321.12 129.994C321.984 130.858 322.416 131.29 322.416 131.29C323.28 131.29 324 130.858 324.576 129.994V127.834H322.848C322.272 128.122 321.696 128.842 321.12 129.994ZM198.432 156.778C198.432 157.354 198.288 157.786 198 158.074C198 158.074 198 158.362 198 158.938C198.288 159.226 198.432 159.514 198.432 159.802C199.008 159.226 199.296 158.65 199.296 158.074C199.296 158.074 199.008 157.642 198.432 156.778ZM201.456 151.594C201.744 151.306 201.888 151.018 201.888 150.73C201.888 150.442 202.032 150.154 202.32 149.866C202.32 149.29 202.032 149.002 201.456 149.002C200.88 149.578 200.592 150.01 200.592 150.298C200.592 150.586 200.88 151.018 201.456 151.594ZM318.528 161.962C318.24 162.25 318.096 162.394 318.096 162.394C317.808 162.394 317.664 162.538 317.664 162.826C317.952 163.402 318.096 163.834 318.096 164.122C318.096 164.41 318.24 164.842 318.528 165.418C319.104 164.842 319.392 164.41 319.392 164.122C319.392 163.834 319.104 163.114 318.528 161.962ZM277.92 319.21L278.784 319.642V319.21H277.92ZM275.328 327.418L276.192 327.85V326.986L275.328 327.418ZM273.168 332.17L272.736 333.034H273.6L273.168 332.17ZM291.312 284.65L292.176 285.082V284.65H291.312ZM288.72 290.266L289.584 290.698V289.834L288.72 290.266ZM337.536 103.642L337.104 103.21V104.074L337.536 103.642ZM334.944 109.258L334.512 108.394V109.258H334.944ZM182.88 228.49L182.448 228.922H182.88V228.49ZM180.288 244.474L179.856 244.906H180.288V244.474ZM252.432 388.762L252 388.33L251.568 389.194L252.432 388.762ZM244.224 403.882L243.792 404.746H244.224V403.882ZM265.824 354.202L265.392 353.77L264.96 354.634L265.824 354.202ZM261.936 361.978L262.8 362.41V361.546L261.936 361.978ZM209.664 124.378L208.8 125.242H209.664V124.378ZM206.208 130.426L207.072 130.858V129.994L206.208 130.426ZM204.048 140.362L203.616 141.226H204.48L204.048 140.362Z" fill="white"/>
<defs>
<linearGradient id="paint0_linear_5326_2689" x1="0" y1="0" x2="542.624" y2="34.8244" gradientUnits="userSpaceOnUse">
<stop offset="0.182292" stop-color="#5787D7"/>
<stop offset="1" stop-color="#6EC2FB"/>
</linearGradient>
</defs>
</svg>
